<?xml version="1.0" encoding="iso-8859-1"?>
<!-- Generator: Adobe Illustrator 19.0.0, SVG Export Plug-In . SVG Version: 6.00 Build 0)  -->
<svg version="1.1" id="Capa_1" xmlns="http://www.w3.org/2000/svg" xmlns:xlink="http://www.w3.org/1999/xlink" x="0px" y="0px"
	 viewBox="0 0 384 384" style="enable-background:new 0 0 384 384;" xml:space="preserve">
<circle style="fill:#45B39C;" cx="192" cy="192" r="192"/>
<path style="opacity:0.1;enable-background:new    ;" d="M296.64,81.997H87.36c-2.96,0-5.36,2.4-5.36,5.36v209.279
	c0,1.52,0.64,2.92,1.68,3.92l81.544,81.544C173.978,383.324,182.908,384,192,384c106.039,0,192-85.962,192-192
	c0-9.078-0.676-17.995-1.894-26.737L300.56,83.717C299.6,82.677,298.2,81.997,296.64,81.997z"/>
<path style="fill:#FFFFFF;" d="M87.346,82h209.308c2.953,0,5.347,2.394,5.347,5.346v209.308c0,2.953-2.394,5.346-5.347,5.346H87.346
	c-2.952,0-5.346-2.393-5.346-5.346V87.346C82,84.394,84.394,82,87.346,82z"/>
<path style="fill:#64798A;" d="M87.346,82h209.308c2.953,0,5.347,2.394,5.347,5.346v31.274H82V87.346C82,84.394,84.394,82,87.346,82
	z"/>
<rect x="155.72" y="94.248" style="fill:#EBF0F3;" width="137.828" height="12.08"/>
<circle style="fill:#FCD462;" cx="138.468" cy="100.32" r="6.04"/>
<circle style="fill:#44C4A1;" cx="116.92" cy="100.32" r="6.04"/>
<circle style="fill:#E56353;" cx="95.412" cy="100.32" r="6.04"/>
<g>
	<rect x="100.84" y="141.84" style="fill:#64798A;" width="18.588" height="5.568"/>
	<rect x="100.84" y="163.868" style="fill:#64798A;" width="18.588" height="5.568"/>
	<rect x="236.72" y="163.868" style="fill:#64798A;" width="18.588" height="5.568"/>
	<rect x="100.84" y="185.88" style="fill:#64798A;" width="18.588" height="5.568"/>
</g>
<rect x="212.56" y="185.88" style="fill:#E56353;" width="18.584" height="5.568"/>
<rect x="255.32" y="185.88" style="fill:#27A2DB;" width="18.588" height="5.568"/>
<g>
	<rect x="100.84" y="207.892" style="fill:#64798A;" width="18.588" height="5.568"/>
	<rect x="100.84" y="229.92" style="fill:#64798A;" width="18.588" height="5.568"/>
	<rect x="100.84" y="251.916" style="fill:#64798A;" width="18.588" height="5.568"/>
	<rect x="100.84" y="273.92" style="fill:#64798A;" width="18.588" height="5.568"/>
</g>
<rect x="212.56" y="273.92" style="fill:#E56353;" width="18.584" height="5.568"/>
<rect x="258.32" y="273.92" style="fill:#FCD462;" width="18.584" height="5.568"/>
<rect x="141.72" y="141.84" style="fill:#E56353;" width="18.588" height="5.568"/>
<rect x="179.924" y="141.84" style="fill:#64798A;" width="18.588" height="5.568"/>
<g>
	<rect x="218.12" y="141.84" style="fill:#44C4A1;" width="18.588" height="5.568"/>
	<rect x="160.32" y="163.868" style="fill:#44C4A1;" width="48.648" height="5.568"/>
</g>
<rect x="141.72" y="185.88" style="fill:#64798A;" width="54.04" height="5.568"/>
<rect x="159.452" y="207.892" style="fill:#44C4A1;" width="18.588" height="5.568"/>
<rect x="195.764" y="207.892" style="fill:#DC8744;" width="55.956" height="5.568"/>
<rect x="141.72" y="229.92" style="fill:#E56353;" width="18.588" height="5.568"/>
<rect x="179.924" y="229.92" style="fill:#64798A;" width="18.588" height="5.568"/>
<rect x="218.12" y="229.92" style="fill:#FCD462;" width="55.756" height="5.568"/>
<g>
	<rect x="141.72" y="251.916" style="fill:#64798A;" width="18.588" height="5.568"/>
	<rect x="264.6" y="251.916" style="fill:#64798A;" width="18.588" height="5.568"/>
</g>
<rect x="179.924" y="251.916" style="fill:#27A2DB;" width="61.764" height="5.568"/>
<rect x="141.72" y="273.92" style="fill:#DC8744;" width="54.04" height="5.568"/>
<g>
	<path style="fill:#2F4859;" d="M208.024,229.529c0.254,0,0.513-0.057,0.757-0.177c0.847-0.419,1.196-1.446,0.777-2.294
		l-4.409-8.944c-0.14-0.283-0.354-0.522-0.62-0.69l-9.318-5.896c-0.799-0.505-1.857-0.267-2.362,0.533
		c-0.506,0.8-0.268,1.858,0.532,2.364l8.911,5.638l4.196,8.512C206.785,229.178,207.393,229.529,208.024,229.529z"/>
	<path style="fill:#2F4859;" d="M196.076,250.926c0.244,0,0.487-0.052,0.711-0.155l8.016-3.662c0.86-0.393,1.239-1.41,0.846-2.27
		c-0.392-0.86-1.406-1.238-2.268-0.847l-7.556,3.453l-7.516-1.106c-0.938-0.146-1.806,0.509-1.944,1.446
		c-0.137,0.936,0.509,1.806,1.444,1.944l8.016,1.18C195.91,250.92,195.993,250.926,196.076,250.926z"/>
	<path style="fill:#2F4859;" d="M197.252,284.793c0.422,0,0.846-0.156,1.177-0.469c1.011-0.957,4.154-3.44,6.537-3.44
		c0.537,0,1.043-0.252,1.366-0.682c0.324-0.43,0.427-0.986,0.28-1.502c-0.028-0.097-2.742-9.96,2.779-12.966
		c0.83-0.452,1.138-1.492,0.686-2.323c-0.45-0.831-1.493-1.138-2.322-0.686c-6.138,3.343-5.517,11.346-4.856,15.025
		c-3.412,0.919-6.435,3.717-6.828,4.091c-0.684,0.651-0.711,1.734-0.062,2.42C196.346,284.614,196.798,284.793,197.252,284.793z"/>
	<path style="fill:#2F4859;" d="M265.406,229.529c-0.254,0-0.512-0.057-0.757-0.177c-0.847-0.419-1.196-1.446-0.777-2.294
		l4.409-8.944c0.14-0.283,0.354-0.522,0.62-0.69l9.318-5.896c0.799-0.505,1.857-0.267,2.362,0.533
		c0.506,0.8,0.268,1.858-0.532,2.364l-8.911,5.638l-4.196,8.512C266.644,229.178,266.037,229.529,265.406,229.529z"/>
	<path style="fill:#2F4859;" d="M277.354,250.926c-0.244,0-0.487-0.052-0.711-0.155l-8.016-3.662c-0.86-0.393-1.239-1.41-0.846-2.27
		c0.392-0.86,1.405-1.238,2.268-0.847l7.556,3.453l7.516-1.106c0.938-0.146,1.806,0.509,1.944,1.446
		c0.137,0.936-0.509,1.806-1.444,1.944l-8.016,1.18C277.52,250.92,277.437,250.926,277.354,250.926z"/>
	<path style="fill:#2F4859;" d="M276.178,284.793c-0.422,0-0.846-0.156-1.177-0.469c-1.011-0.957-4.154-3.44-6.537-3.44
		c-0.537,0-1.043-0.252-1.367-0.682c-0.324-0.43-0.427-0.986-0.28-1.502c0.028-0.097,2.742-9.96-2.779-12.966
		c-0.83-0.452-1.138-1.492-0.685-2.323c0.45-0.831,1.492-1.138,2.322-0.686c6.138,3.343,5.517,11.346,4.856,15.025
		c3.412,0.919,6.434,3.717,6.828,4.091c0.684,0.651,0.711,1.734,0.061,2.42C277.084,284.614,276.631,284.793,276.178,284.793z"/>
	<path style="fill:#2F4859;" d="M243.894,198.747c-0.017,0-0.032-0.001-0.048-0.001c-0.945-0.026-1.69-0.811-1.664-1.757
		c0.166-6.346,3.648-18.765,15.637-20.348c0.937-0.122,1.798,0.536,1.922,1.474c0.124,0.938-0.536,1.799-1.474,1.923
		c-12.076,1.594-12.644,16.413-12.663,17.043C245.577,198.01,244.816,198.747,243.894,198.747z"/>
	<path style="fill:#2F4859;" d="M229.914,198.748c-0.924,0-1.684-0.737-1.71-1.666l0,0c-0.019-0.63-0.586-15.45-12.662-17.043
		c-0.937-0.124-1.597-0.985-1.473-1.923c0.124-0.938,0.988-1.597,1.922-1.474c11.988,1.583,15.47,14.002,15.635,20.349
		c0.026,0.946-0.721,1.733-1.666,1.757C229.946,198.748,229.93,198.748,229.914,198.748z"/>
</g>
<path style="fill:#E56353;" d="M210.174,215.158c-4.724,7.479-7.556,16.975-7.556,27.318c0,24.103,15.351,43.642,34.288,43.642
	c18.936,0,34.287-19.539,34.287-43.642c0-10.343-2.833-19.839-7.556-27.318H210.174z"/>
<g>
	<path style="fill:#3A556A;" d="M236.905,193.296c-10.811,0-20.447,8.537-26.731,21.862h53.462
		C257.351,201.833,247.715,193.296,236.905,193.296z"/>
	<path style="fill:#3A556A;" d="M233.268,285.872c1.195,0.16,2.408,0.246,3.637,0.246c1.229,0,2.442-0.086,3.637-0.246l-3.637-54.1
		L233.268,285.872z"/>
	<circle style="fill:#3A556A;" cx="254.2" cy="223.66" r="1.112"/>
	<circle style="fill:#3A556A;" cx="248.4" cy="246.96" r="2.152"/>
	<circle style="fill:#3A556A;" cx="263.68" cy="238.96" r="2.3"/>
	<circle style="fill:#3A556A;" cx="255.2" cy="262.28" r="3.332"/>
	<circle style="fill:#3A556A;" cx="218.28" cy="257.8" r="1.856"/>
	<circle style="fill:#3A556A;" cx="211.38" cy="240.8" r="3.116"/>
	<circle style="fill:#3A556A;" cx="223.12" cy="224.32" r="1.78"/>
	<circle style="fill:#3A556A;" cx="227.08" cy="241.16" r="2.188"/>
	<circle style="fill:#3A556A;" cx="241.24" cy="224.76" r="2.188"/>
	<circle style="fill:#3A556A;" cx="221.36" cy="270.68" r="2.116"/>
</g>
<circle style="fill:#2F4859;" cx="226.8" cy="204.28" r="3.752"/>
<circle style="fill:#64798A;" cx="226.8" cy="204.28" r="2.284"/>
<circle style="fill:#2F4859;" cx="247" cy="204.28" r="3.752"/>
<circle style="fill:#64798A;" cx="247" cy="204.28" r="2.284"/>
<g>
</g>
<g>
</g>
<g>
</g>
<g>
</g>
<g>
</g>
<g>
</g>
<g>
</g>
<g>
</g>
<g>
</g>
<g>
</g>
<g>
</g>
<g>
</g>
<g>
</g>
<g>
</g>
<g>
</g>
</svg>
