<?xml version="1.0" encoding="iso-8859-1"?>
<!-- Generator: Adobe Illustrator 19.0.0, SVG Export Plug-In . SVG Version: 6.00 Build 0)  -->
<svg version="1.1" id="Layer_1" xmlns="http://www.w3.org/2000/svg" xmlns:xlink="http://www.w3.org/1999/xlink" x="0px" y="0px"
	 viewBox="0 0 491.52 491.52" style="enable-background:new 0 0 491.52 491.52;" xml:space="preserve">
<circle style="fill:#45B39C;" cx="245.76" cy="245.76" r="245.76"/>
<path style="opacity:0.1;enable-background:new    ;" d="M373.914,104.95H117.606c-6.963,0-12.646,5.683-12.646,12.646v256.307
	c0,3.226,1.229,6.195,3.277,8.448c0.41,0.461,0.87,0.922,1.331,1.331l105.914,105.914c9.929,1.221,20.019,1.923,30.278,1.923
	c135.73,0,245.76-110.031,245.76-245.76c0-10.247-0.7-20.325-1.919-30.243L382.31,108.227
	C380.058,106.179,377.139,104.95,373.914,104.95z"/>
<path style="fill:#EBF0F3;" d="M373.918,104.96H117.602c-6.982,0-12.642,5.66-12.642,12.642v256.315
	c0,6.982,5.66,12.642,12.642,12.642h256.315c6.981,0,12.642-5.66,12.642-12.642V117.602
	C386.56,110.62,380.899,104.96,373.918,104.96z"/>
<g>
	<rect x="125.44" y="157.302" style="fill:#64798A;" width="240.64" height="208.778"/>
	<rect x="125.44" y="123.136" style="fill:#64798A;" width="172.068" height="14.556"/>
</g>
<rect x="125.44" y="358.385" style="fill:#3A556A;" width="240.64" height="7.695"/>
<circle style="fill:#FCD462;" cx="313.395" cy="130.401" r="7.276"/>
<circle style="fill:#44C4A1;" cx="336.128" cy="130.401" r="7.276"/>
<circle style="fill:#E56353;" cx="358.81" cy="130.401" r="7.276"/>
<g>
	<path style="fill:#FFFFFF;" d="M169.028,222.143h-9.465l-13.605-39.335h8.575l9.76,29.725l9.76-29.725h8.58l9.755,29.725
		l9.76-29.725h8.58l-13.605,39.335h-9.465l-9.315-26.91L169.028,222.143z"/>
	<path style="fill:#FFFFFF;" d="M236.457,222.143h-9.465l-13.605-39.335h8.575l9.76,29.725l9.76-29.725h8.58l9.755,29.725
		l9.76-29.725h8.58l-13.605,39.335h-9.465l-9.315-26.91L236.457,222.143z"/>
	<path style="fill:#FFFFFF;" d="M303.883,222.143h-9.465l-13.605-39.335h8.575l9.76,29.725l9.76-29.725h8.58l9.755,29.725
		l9.76-29.725h8.58l-13.605,39.335h-9.465l-9.315-26.91L303.883,222.143z"/>
</g>
<rect x="145.956" y="257.843" style="fill:#FCD462;" width="50.278" height="7.68"/>
<rect x="145.956" y="279.552" style="fill:#27A2DB;" width="50.278" height="7.68"/>
<rect x="215.501" y="279.552" style="fill:#44C4A1;" width="25.139" height="7.68"/>
<rect x="145.956" y="301.215" style="fill:#E56353;" width="116.25" height="7.68"/>
<rect x="145.956" y="322.918" style="fill:#FCD462;" width="174.746" height="7.68"/>
<g>
</g>
<g>
</g>
<g>
</g>
<g>
</g>
<g>
</g>
<g>
</g>
<g>
</g>
<g>
</g>
<g>
</g>
<g>
</g>
<g>
</g>
<g>
</g>
<g>
</g>
<g>
</g>
<g>
</g>
</svg>
